<?xml version="1.0" encoding="utf-8"?>
<!-- Generator: Adobe Illustrator 24.1.0, SVG Export Plug-In . SVG Version: 6.00 Build 0)  -->
<svg version="1.1" id="Layer_1" xmlns="http://www.w3.org/2000/svg" xmlns:xlink="http://www.w3.org/1999/xlink" x="0px" y="0px"
	 viewBox="0 0 108.7 120" style="enable-background:new 0 0 108.7 120;" xml:space="preserve">
<style type="text/css">
	.st0{fill:#E14C4C;}
	.st1{fill:#FFFFFF;}
	.st2{fill:#D0B48C;}
</style>
<g>
	<path class="st0" d="M106,53.9c0.4-1.4,0.6-2.8,0.6-4.3c0-4.2-2.7-10.9-8.1-20c-3.9-6.7-7.9-12.3-7.9-12.3
		c-0.3-0.4-0.7-0.6-1.2-0.6c-0.5,0-0.9,0.2-1.2,0.6c0,0.1-4,5.6-7.9,12.3c-0.8,1.4-1.6,2.7-2.3,4c1.8,3.4,3.4,6.5,4.8,9.4
		c2.1-0.9,4.3-1.3,6.7-1.3C97.2,41.7,103.8,46.8,106,53.9z"/>
	<path class="st1" d="M106,53.9c-1.9,7.4-8.6,12.9-16.7,12.9c-0.1,0-0.3,0-0.4,0c-0.2,2.6-0.7,5-1.5,7.4c0.2,0.7,0.5,1.3,0.7,2
		c0.5,0,0.9,0.1,1.4,0.1c9.6,0,17.3-7.8,17.3-17.3C106.7,57.2,106.5,55.5,106,53.9z"/>
	<path class="st2" d="M106,53.9c-2.2-7.1-8.8-12.2-16.6-12.2c-2.4,0-4.6,0.5-6.7,1.3c4.2,8.9,6.3,16,6.3,21c0,0.9,0,1.9-0.1,2.8
		c0.1,0,0.3,0,0.4,0C97.3,66.9,104.1,61.4,106,53.9z"/>
</g>
<path class="st0" d="M23.3,48.8c1.7,0,3.3,0.2,4.9,0.6c1.7-4.4,4.1-9.3,7-14.8c-0.2-0.4-0.5-0.8-0.7-1.3c-4.9-8.3-9.8-15.2-9.8-15.2
	c-0.3-0.5-0.9-0.8-1.5-0.8c-0.6,0-1.1,0.3-1.5,0.8c0,0.1-5,7-9.8,15.2c-6.6,11.3-10,19.6-10,24.8c0,2.1,0.3,4.1,0.9,6
	C5.3,55.3,13.5,48.8,23.3,48.8z"/>
<path class="st1" d="M25.2,79.3c-0.7,0.1-1.4,0.1-2.1,0.1c-9.7,0-17.8-6.5-20.4-15.3c-0.6,1.9-0.9,4-0.9,6.1
	c0,11.8,9.6,21.4,21.4,21.4c0.6,0,1.3,0,1.9-0.1c-0.4-1.9-0.6-4-0.6-6C24.6,83.4,24.8,81.3,25.2,79.3z"/>
<path class="st2" d="M28.2,49.4c-1.6-0.4-3.2-0.6-4.9-0.6c-9.7,0-17.9,6.5-20.6,15.4C5.3,73,13.5,79.4,23.2,79.4
	c0.7,0,1.4,0,2.1-0.1c0.3-1.6,0.7-3.1,1.2-4.5c-1.2-3.4-1.8-7-1.8-10.7C24.6,60.3,25.8,55.3,28.2,49.4z"/>
<path class="st0" d="M82.7,43c-1.4-2.9-3-6.1-4.8-9.4c-1.2-2.3-2.6-4.6-4-7c-7.3-12.5-14.8-22.9-14.9-23c-0.5-0.7-1.4-1.2-2.2-1.2
	s-1.7,0.4-2.2,1.2c-0.1,0.1-7.5,10.6-14.9,23c-1.6,2.8-3.1,5.5-4.5,8c-3,5.5-5.3,10.4-7,14.8c-2.4,6-3.6,10.9-3.6,14.7
	c0,3.8,0.7,7.4,1.8,10.7c2.6-7.3,7.6-13.3,14.2-17.2c1.2-0.7,2.4-1.3,3.7-1.9c3.9-1.7,8.2-2.6,12.8-2.6c5.5,0,10.7,1.4,15.2,3.8
	c0.7,0.4,1.5,0.8,2.2,1.3c3,1.9,5.7,4.3,7.9,7.1c2.1,2.6,3.8,5.6,5,8.9c0.8-2.4,1.3-4.8,1.5-7.4C89,65.9,89,65,89,64.1
	C89,59,86.9,52,82.7,43z"/>
<path class="st1" d="M88.1,76.2c-0.2-0.7-0.4-1.3-0.7-2c-0.2,0.6-0.5,1.2-0.7,1.8c-4.8,11.8-16.3,20.2-29.9,20.2
	c-8.3,0-15.8-3.2-21.5-8.3c-2.9-2.6-5.3-5.7-7.1-9.1c-0.7-1.3-1.3-2.6-1.8-4c-0.5,1.5-0.9,3-1.2,4.5c-0.4,2-0.6,4.1-0.6,6.2
	c0,2.1,0.2,4.1,0.6,6c2.8,15,16,26.4,31.8,26.4c17.9,0,32.4-14.5,32.4-32.4C89.4,82.3,88.9,79.2,88.1,76.2z"/>
<path class="st2" d="M82.4,65.4c-2.2-2.8-4.9-5.2-7.9-7.1c-0.7-0.5-1.4-0.9-2.2-1.3c-4.5-2.4-9.7-3.8-15.2-3.8
	c-4.5,0-8.8,0.9-12.8,2.6c-1.3,0.5-2.5,1.2-3.7,1.9c-6.5,3.8-11.6,9.9-14.2,17.2c0.5,1.4,1.1,2.7,1.8,4c1.8,3.5,4.2,6.6,7.1,9.1
	c5.7,5.2,13.3,8.3,21.5,8.3c13.5,0,25.1-8.4,29.9-20.2c0.2-0.6,0.5-1.2,0.7-1.8C86.2,71,84.5,68,82.4,65.4z"/>
</svg>
